<mxfile host="app.diagrams.net" modified="2023-02-07T20:38:43.685Z" agent="5.0 (Windows NT 10.0; Win64; x64) AppleWebKit/537.36 (KHTML, like Gecko) Chrome/109.0.0.0 Safari/537.36" etag="6jf4vfq8b9mA5FGtmk-v" version="20.8.18" type="github">
  <diagram name="Strona-1" id="gLHsicr3WE0OQWzkWW_d">
    <mxGraphModel dx="1728" dy="937" grid="1" gridSize="10" guides="1" tooltips="1" connect="1" arrows="1" fold="1" page="1" pageScale="1" pageWidth="827" pageHeight="1169" math="0" shadow="0">
      <root>
        <mxCell id="0" />
        <mxCell id="1" parent="0" />
        <mxCell id="bd_stn3d0GWM7Ao6Tul9-1" value="&amp;lt;&amp;lt;system&amp;gt;&amp;gt;&lt;br&gt;eBike" style="rounded=0;whiteSpace=wrap;html=1;" vertex="1" parent="1">
          <mxGeometry x="350" y="330" width="120" height="60" as="geometry" />
        </mxCell>
        <mxCell id="bd_stn3d0GWM7Ao6Tul9-6" value="" style="edgeStyle=none;rounded=0;orthogonalLoop=1;jettySize=auto;html=1;endArrow=none;endFill=0;" edge="1" parent="1" source="bd_stn3d0GWM7Ao6Tul9-2" target="bd_stn3d0GWM7Ao6Tul9-1">
          <mxGeometry relative="1" as="geometry" />
        </mxCell>
        <mxCell id="bd_stn3d0GWM7Ao6Tul9-2" value="Visitor" style="shape=umlActor;verticalLabelPosition=bottom;verticalAlign=top;html=1;outlineConnect=0;" vertex="1" parent="1">
          <mxGeometry x="240" y="330" width="30" height="60" as="geometry" />
        </mxCell>
        <mxCell id="bd_stn3d0GWM7Ao6Tul9-7" value="" style="edgeStyle=none;rounded=0;orthogonalLoop=1;jettySize=auto;html=1;endArrow=none;endFill=0;" edge="1" parent="1" source="bd_stn3d0GWM7Ao6Tul9-3" target="bd_stn3d0GWM7Ao6Tul9-1">
          <mxGeometry relative="1" as="geometry" />
        </mxCell>
        <mxCell id="bd_stn3d0GWM7Ao6Tul9-3" value="Employee" style="shape=umlActor;verticalLabelPosition=bottom;verticalAlign=top;html=1;outlineConnect=0;" vertex="1" parent="1">
          <mxGeometry x="550" y="330" width="30" height="60" as="geometry" />
        </mxCell>
        <mxCell id="bd_stn3d0GWM7Ao6Tul9-5" value="" style="rounded=0;orthogonalLoop=1;jettySize=auto;html=1;endArrow=none;endFill=0;" edge="1" parent="1" target="bd_stn3d0GWM7Ao6Tul9-1">
          <mxGeometry relative="1" as="geometry">
            <mxPoint x="410" y="290" as="sourcePoint" />
          </mxGeometry>
        </mxCell>
        <mxCell id="bd_stn3d0GWM7Ao6Tul9-4" value="User&lt;br&gt;" style="shape=umlActor;verticalLabelPosition=bottom;verticalAlign=top;html=1;outlineConnect=0;" vertex="1" parent="1">
          <mxGeometry x="395" y="210" width="30" height="60" as="geometry" />
        </mxCell>
        <mxCell id="bd_stn3d0GWM7Ao6Tul9-8" value="scd eBike system context diagram" style="shape=umlFrame;whiteSpace=wrap;html=1;pointerEvents=0;width=210;height=30;" vertex="1" parent="1">
          <mxGeometry x="180" y="190" width="450" height="250" as="geometry" />
        </mxCell>
      </root>
    </mxGraphModel>
  </diagram>
</mxfile>
